<svg width="1246" height="366" viewBox="0 0 1246 366" fill="none" xmlns="http://www.w3.org/2000/svg">
<path d="M1142.58 226.404C1151.65 226.404 1159 219.051 1159 209.981C1159 200.911 1151.65 193.558 1142.58 193.558C1133.51 193.558 1126.15 200.911 1126.15 209.981C1126.15 219.051 1133.51 226.404 1142.58 226.404Z" fill="url(#paint0_linear_246_1149)" fill-opacity="0.13"/>
<g filter="url(#filter0_d_246_1149)">
<path d="M1147.59 204.723C1148.14 206.109 1147.79 207.137 1146.97 207.897C1148.65 207.824 1149.91 208.476 1150.31 210.625C1150.82 213.293 1149.08 214.546 1146.36 215.497L1147.14 218.228L1145.49 218.701L1144.72 216.006C1144.29 216.129 1143.85 216.251 1143.4 216.371L1144.18 219.078L1142.53 219.549L1141.75 216.814C1141.36 216.921 1140.97 217.027 1140.57 217.141L1138.43 217.756L1138.19 215.696C1138.19 215.696 1139.41 215.366 1139.39 215.353C1139.85 215.219 1139.88 214.848 1139.85 214.63L1138.61 210.313L1138.78 210.263C1138.71 210.273 1138.65 210.289 1138.61 210.301L1137.72 207.22C1137.56 206.904 1137.24 206.579 1136.57 206.77C1136.58 206.742 1135.37 207.114 1135.37 207.114L1134.87 205.355L1137.14 204.705L1137.14 204.713C1137.48 204.615 1137.83 204.508 1138.19 204.399L1137.41 201.695L1139.06 201.223L1139.82 203.874C1140.26 203.739 1140.7 203.605 1141.13 203.48L1140.37 200.846L1142.02 200.374L1142.79 203.079C1144.97 202.656 1146.84 202.827 1147.59 204.723ZM1146.97 211.232C1146.35 209.101 1142.95 210.425 1141.83 210.745L1142.87 214.37C1143.98 214.048 1147.55 213.277 1146.96 211.233L1146.97 211.232ZM1144.73 206.338C1144.18 204.399 1141.34 205.53 1140.41 205.798L1141.35 209.086C1142.28 208.819 1145.27 208.199 1144.73 206.338Z" fill="url(#paint1_linear_246_1149)" fill-opacity="0.13"/>
</g>
<path d="M1147.59 204.723C1148.14 206.109 1147.79 207.137 1146.97 207.897C1148.65 207.824 1149.91 208.476 1150.31 210.625C1150.82 213.293 1149.08 214.546 1146.36 215.497L1147.14 218.228L1145.49 218.701L1144.72 216.006C1144.29 216.129 1143.85 216.251 1143.4 216.371L1144.18 219.078L1142.53 219.549L1141.75 216.814C1141.36 216.921 1140.97 217.027 1140.57 217.141L1138.43 217.756L1138.19 215.696C1138.19 215.696 1139.41 215.366 1139.39 215.353C1139.85 215.219 1139.88 214.848 1139.85 214.63L1138.61 210.313L1138.78 210.263C1138.71 210.273 1138.65 210.289 1138.61 210.301L1137.72 207.22C1137.56 206.904 1137.24 206.579 1136.57 206.77C1136.58 206.742 1135.37 207.114 1135.37 207.114L1134.87 205.355L1137.14 204.705L1137.14 204.713C1137.48 204.615 1137.83 204.508 1138.19 204.399L1137.41 201.695L1139.06 201.223L1139.82 203.874C1140.26 203.739 1140.7 203.605 1141.13 203.48L1140.37 200.846L1142.02 200.374L1142.79 203.079C1144.97 202.656 1146.84 202.827 1147.59 204.723ZM1146.97 211.232C1146.35 209.101 1142.95 210.425 1141.83 210.745L1142.87 214.37C1143.98 214.048 1147.55 213.277 1146.96 211.233L1146.97 211.232ZM1144.73 206.338C1144.18 204.399 1141.34 205.53 1140.41 205.798L1141.35 209.086C1142.28 208.819 1145.27 208.199 1144.73 206.338Z" fill="url(#paint2_linear_246_1149)"/>
<g clip-path="url(#clip0_246_1149)">
<path d="M1170.71 94.5714C1186.89 94.5714 1200 81.4598 1200 65.2857C1200 49.1117 1186.89 36 1170.71 36C1154.54 36 1141.43 49.1117 1141.43 65.2857C1141.43 81.4598 1154.54 94.5714 1170.71 94.5714Z" fill="url(#paint3_linear_246_1149)" fill-opacity="0.13"/>
<g filter="url(#filter1_d_246_1149)">
<path d="M1171.43 75.4608L1183.51 68.4566L1171.43 85.1609L1159.36 68.455L1171.43 75.4576V75.4608ZM1171.43 46.5426L1183.5 66.2098L1171.43 73.2157L1159.36 66.2098L1171.43 46.5426Z" fill="url(#paint4_linear_246_1149)"/>
</g>
<path d="M1171.43 46.5426V60.8182L1183.5 66.2098L1171.43 46.5426Z" fill="url(#paint5_linear_246_1149)"/>
<path d="M1171.43 46.5426L1159.36 66.2098L1171.43 60.8182V46.5426Z" fill="url(#paint6_linear_246_1149)"/>
<path d="M1171.43 75.4608V85.1609L1183.51 68.4566L1171.43 75.4608Z" fill="url(#paint7_linear_246_1149)"/>
<path d="M1171.43 85.1609V75.4592L1159.37 68.4566L1171.43 85.1609Z" fill="url(#paint8_linear_246_1149)"/>
<path d="M1171.43 73.2157L1183.5 66.2098L1171.43 60.8215V73.2157Z" fill="url(#paint9_linear_246_1149)"/>
</g>
<path d="M21.7019 232.269C33.6876 232.269 43.4038 222.553 43.4038 210.567C43.4038 198.582 33.6876 188.865 21.7019 188.865C9.71628 188.865 0 198.582 0 210.567C0 222.553 9.71628 232.269 21.7019 232.269Z" fill="url(#paint10_linear_246_1149)" fill-opacity="0.13"/>
<path d="M15.942 213.889L14.4673 214.461L15.1783 211.61L16.6705 211.011L18.8211 202.3H24.1215L22.5518 208.703L24.0089 208.113L23.3062 210.955L21.8315 211.545L20.9551 215.144H28.9352L28.0331 218.835H14.7277L15.942 213.889Z" fill="url(#paint11_linear_246_1149)"/>
<path d="M1218.83 321.423C1233.73 321.423 1245.81 309.343 1245.81 294.442C1245.81 279.541 1233.73 267.462 1218.83 267.462C1203.93 267.462 1191.85 279.541 1191.85 294.442C1191.85 309.343 1203.93 321.423 1218.83 321.423Z" fill="url(#paint12_linear_246_1149)" fill-opacity="0.13"/>
<path d="M1221.44 296.596V296.594C1221.29 296.604 1220.54 296.648 1218.86 296.648C1217.51 296.648 1216.57 296.609 1216.23 296.594V296.597C1211.06 296.375 1207.2 295.495 1207.2 294.442C1207.2 293.391 1211.06 292.511 1216.23 292.284V295.721C1216.57 295.745 1217.54 295.801 1218.88 295.801C1220.48 295.801 1221.29 295.736 1221.44 295.723V292.287C1226.6 292.512 1230.45 293.392 1230.45 294.442C1230.45 295.495 1226.6 296.373 1221.44 296.596ZM1221.44 291.93V288.854H1228.64V284.164H1209.03V288.854H1216.23V291.928C1210.38 292.191 1205.98 293.324 1205.98 294.681C1205.98 296.038 1210.38 297.171 1216.23 297.435V307.29H1221.44V297.432C1227.28 297.169 1231.67 296.037 1231.67 294.681C1231.67 293.326 1227.28 292.193 1221.44 291.93Z" fill="url(#paint13_linear_246_1149)"/>
<path d="M56.3075 366C68.6171 366 78.596 356.021 78.596 343.712C78.596 331.402 68.6171 321.423 56.3075 321.423C43.9979 321.423 34.019 331.402 34.019 343.712C34.019 356.021 43.9979 366 56.3075 366Z" fill="url(#paint14_linear_246_1149)" fill-opacity="0.13"/>
<path d="M65.3051 333.96H68.951L61.3627 341.476C60.0359 342.783 58.2482 343.515 56.3857 343.515C54.5233 343.515 52.7356 342.783 51.4088 341.476L43.8142 333.96H47.4664L53.2318 339.666C54.0714 340.495 55.2036 340.96 56.3832 340.96C57.5629 340.96 58.6951 340.495 59.5346 339.666L65.3051 333.96ZM47.4223 354.856H43.77L51.4088 347.295C52.7356 345.988 54.5233 345.255 56.3857 345.255C58.2482 345.255 60.0359 345.988 61.3627 347.295L69.0015 354.854H65.3492L59.5397 349.099C58.7001 348.271 57.5679 347.806 56.3883 347.806C55.2086 347.806 54.0764 348.271 53.2369 349.099L47.421 354.856H47.4223Z" fill="url(#paint15_linear_246_1149)"/>
<path d="M109.096 61C125.941 61 139.596 47.3447 139.596 30.5C139.596 13.6553 125.941 0 109.096 0C92.2515 0 78.5962 13.6553 78.5962 30.5C78.5962 47.3447 92.2515 61 109.096 61Z" fill="url(#paint16_linear_246_1149)" fill-opacity="0.13"/>
<g filter="url(#filter2_d_246_1149)">
<path d="M121.534 27.043C122.081 23.3916 119.298 21.4282 115.497 20.1181L116.731 15.1705L113.72 14.4214L112.518 19.2384C111.727 19.0398 110.915 18.8551 110.105 18.6704L111.316 13.8221L108.306 13.0713L107.072 18.0172C106.417 17.8673 105.773 17.721 105.149 17.5642L105.153 17.5485L100.999 16.512L100.198 19.7279C100.198 19.7279 102.433 20.2401 102.386 20.2714C103.606 20.5763 103.825 21.3829 103.788 22.024L102.384 27.6597C102.468 27.6806 102.576 27.712 102.698 27.759L102.379 27.6806L100.411 35.5759C100.261 35.9452 99.8827 36.501 99.029 36.2902C99.0604 36.3337 96.8409 35.7449 96.8409 35.7449L95.3462 39.1908L99.2659 40.1681C99.9941 40.351 100.708 40.5427 101.41 40.7221L100.165 45.7254L103.174 46.4745L104.407 41.527C105.229 41.7482 106.027 41.9538 106.808 42.1489L105.578 47.0756L108.588 47.8247L109.834 42.8318C114.969 43.8039 118.83 43.4119 120.455 38.7674C121.765 35.0289 120.391 32.8704 117.689 31.4645C119.657 31.0116 121.138 29.7172 121.534 27.043ZM114.652 36.6908C113.724 40.4312 107.426 38.4086 105.384 37.9016L107.039 31.2729C109.081 31.7833 115.626 32.792 114.652 36.6908ZM115.584 26.989C114.736 30.3914 109.496 28.6615 107.797 28.2381L109.295 22.2278C110.994 22.6512 116.469 23.4403 115.584 26.989Z" fill="url(#paint17_linear_246_1149)" fill-opacity="0.13"/>
</g>
<path d="M121.534 27.043C122.081 23.3916 119.298 21.4282 115.497 20.1181L116.731 15.1705L113.72 14.4214L112.518 19.2384C111.727 19.0398 110.915 18.8551 110.105 18.6704L111.316 13.8221L108.306 13.0713L107.072 18.0172C106.417 17.8673 105.773 17.721 105.149 17.5642L105.153 17.5485L100.999 16.512L100.198 19.7279C100.198 19.7279 102.433 20.2401 102.386 20.2714C103.606 20.5763 103.825 21.3829 103.788 22.024L102.384 27.6597C102.468 27.6806 102.576 27.712 102.698 27.759L102.379 27.6806L100.411 35.5759C100.261 35.9452 99.8827 36.501 99.029 36.2902C99.0604 36.3337 96.8409 35.7449 96.8409 35.7449L95.3462 39.1908L99.2659 40.1681C99.9941 40.351 100.708 40.5427 101.41 40.7221L100.165 45.7254L103.174 46.4745L104.407 41.527C105.229 41.7482 106.027 41.9538 106.808 42.1489L105.578 47.0756L108.588 47.8247L109.834 42.8318C114.969 43.8039 118.83 43.4119 120.455 38.7674C121.765 35.0289 120.391 32.8704 117.689 31.4645C119.657 31.0116 121.138 29.7172 121.534 27.043ZM114.652 36.6908C113.724 40.4312 107.426 38.4086 105.384 37.9016L107.039 31.2729C109.081 31.7833 115.626 32.792 114.652 36.6908ZM115.584 26.989C114.736 30.3914 109.496 28.6615 107.797 28.2381L109.295 22.2278C110.994 22.6512 116.469 23.4403 115.584 26.989Z" fill="url(#paint18_linear_246_1149)"/>
<defs>
<filter id="filter0_d_246_1149" x="1133.87" y="199.874" width="17.5278" height="21.1753" filterUnits="userSpaceOnUse" color-interpolation-filters="sRGB">
<feFlood flood-opacity="0" result="BackgroundImageFix"/>
<feColorMatrix in="SourceAlpha" type="matrix" values="0 0 0 0 0 0 0 0 0 0 0 0 0 0 0 0 0 0 127 0" result="hardAlpha"/>
<feOffset dy="0.5"/>
<feGaussianBlur stdDeviation="0.5"/>
<feColorMatrix type="matrix" values="0 0 0 0 0 0 0 0 0 0 0 0 0 0 0 0 0 0 0.204257 0"/>
<feBlend mode="normal" in2="BackgroundImageFix" result="effect1_dropShadow_246_1149"/>
<feBlend mode="normal" in="SourceGraphic" in2="effect1_dropShadow_246_1149" result="shape"/>
</filter>
<filter id="filter1_d_246_1149" x="1158.36" y="46.0426" width="26.1416" height="40.6183" filterUnits="userSpaceOnUse" color-interpolation-filters="sRGB">
<feFlood flood-opacity="0" result="BackgroundImageFix"/>
<feColorMatrix in="SourceAlpha" type="matrix" values="0 0 0 0 0 0 0 0 0 0 0 0 0 0 0 0 0 0 127 0" result="hardAlpha"/>
<feOffset dy="0.5"/>
<feGaussianBlur stdDeviation="0.5"/>
<feColorMatrix type="matrix" values="0 0 0 0 0 0 0 0 0 0 0 0 0 0 0 0 0 0 0.204257 0"/>
<feBlend mode="normal" in2="BackgroundImageFix" result="effect1_dropShadow_246_1149"/>
<feBlend mode="normal" in="SourceGraphic" in2="effect1_dropShadow_246_1149" result="shape"/>
</filter>
<filter id="filter2_d_246_1149" x="94.3462" y="12.5713" width="28.2563" height="36.7534" filterUnits="userSpaceOnUse" color-interpolation-filters="sRGB">
<feFlood flood-opacity="0" result="BackgroundImageFix"/>
<feColorMatrix in="SourceAlpha" type="matrix" values="0 0 0 0 0 0 0 0 0 0 0 0 0 0 0 0 0 0 127 0" result="hardAlpha"/>
<feOffset dy="0.5"/>
<feGaussianBlur stdDeviation="0.5"/>
<feColorMatrix type="matrix" values="0 0 0 0 0 0 0 0 0 0 0 0 0 0 0 0 0 0 0.204257 0"/>
<feBlend mode="normal" in2="BackgroundImageFix" result="effect1_dropShadow_246_1149"/>
<feBlend mode="normal" in="SourceGraphic" in2="effect1_dropShadow_246_1149" result="shape"/>
</filter>
<linearGradient id="paint0_linear_246_1149" x1="1142.58" y1="193.558" x2="1142.58" y2="226.404" gradientUnits="userSpaceOnUse">
<stop stop-color="white"/>
<stop offset="1" stop-color="white" stop-opacity="0"/>
</linearGradient>
<linearGradient id="paint1_linear_246_1149" x1="1142.63" y1="200.374" x2="1142.63" y2="219.549" gradientUnits="userSpaceOnUse">
<stop stop-color="white"/>
<stop offset="1" stop-color="white" stop-opacity="0"/>
</linearGradient>
<linearGradient id="paint2_linear_246_1149" x1="1142.63" y1="200.374" x2="1142.63" y2="219.549" gradientUnits="userSpaceOnUse">
<stop stop-color="white"/>
<stop offset="1" stop-color="white" stop-opacity="0"/>
</linearGradient>
<linearGradient id="paint3_linear_246_1149" x1="1170.71" y1="36" x2="1170.71" y2="94.5714" gradientUnits="userSpaceOnUse">
<stop stop-color="white"/>
<stop offset="1" stop-color="white" stop-opacity="0"/>
</linearGradient>
<linearGradient id="paint4_linear_246_1149" x1="1171.44" y1="46.5426" x2="1171.44" y2="85.1609" gradientUnits="userSpaceOnUse">
<stop stop-color="white"/>
<stop offset="1" stop-color="white" stop-opacity="0"/>
</linearGradient>
<linearGradient id="paint5_linear_246_1149" x1="1177.47" y1="46.5426" x2="1177.47" y2="66.2098" gradientUnits="userSpaceOnUse">
<stop stop-color="white"/>
<stop offset="1" stop-color="white" stop-opacity="0"/>
</linearGradient>
<linearGradient id="paint6_linear_246_1149" x1="1165.4" y1="46.5426" x2="1165.4" y2="66.2098" gradientUnits="userSpaceOnUse">
<stop stop-color="white"/>
<stop offset="1" stop-color="white" stop-opacity="0"/>
</linearGradient>
<linearGradient id="paint7_linear_246_1149" x1="1177.47" y1="68.4566" x2="1177.47" y2="85.1609" gradientUnits="userSpaceOnUse">
<stop stop-color="white"/>
<stop offset="1" stop-color="white" stop-opacity="0"/>
</linearGradient>
<linearGradient id="paint8_linear_246_1149" x1="1165.4" y1="68.4566" x2="1165.4" y2="85.1609" gradientUnits="userSpaceOnUse">
<stop stop-color="white"/>
<stop offset="1" stop-color="white" stop-opacity="0"/>
</linearGradient>
<linearGradient id="paint9_linear_246_1149" x1="1177.47" y1="60.8215" x2="1177.47" y2="73.2157" gradientUnits="userSpaceOnUse">
<stop stop-color="white"/>
<stop offset="1" stop-color="white" stop-opacity="0"/>
</linearGradient>
<linearGradient id="paint10_linear_246_1149" x1="21.7019" y1="188.865" x2="21.7019" y2="232.269" gradientUnits="userSpaceOnUse">
<stop stop-color="white"/>
<stop offset="1" stop-color="white" stop-opacity="0"/>
</linearGradient>
<linearGradient id="paint11_linear_246_1149" x1="21.7013" y1="202.3" x2="21.7013" y2="218.835" gradientUnits="userSpaceOnUse">
<stop stop-color="white"/>
<stop offset="1" stop-color="white" stop-opacity="0"/>
</linearGradient>
<linearGradient id="paint12_linear_246_1149" x1="1218.83" y1="267.462" x2="1218.83" y2="321.423" gradientUnits="userSpaceOnUse">
<stop stop-color="white"/>
<stop offset="1" stop-color="white" stop-opacity="0"/>
</linearGradient>
<linearGradient id="paint13_linear_246_1149" x1="1218.83" y1="284.164" x2="1218.83" y2="307.29" gradientUnits="userSpaceOnUse">
<stop stop-color="white"/>
<stop offset="1" stop-color="white" stop-opacity="0"/>
</linearGradient>
<linearGradient id="paint14_linear_246_1149" x1="56.3075" y1="321.423" x2="56.3075" y2="366" gradientUnits="userSpaceOnUse">
<stop stop-color="white"/>
<stop offset="1" stop-color="white" stop-opacity="0"/>
</linearGradient>
<linearGradient id="paint15_linear_246_1149" x1="56.3857" y1="333.96" x2="56.3857" y2="354.856" gradientUnits="userSpaceOnUse">
<stop stop-color="white"/>
<stop offset="1" stop-color="white" stop-opacity="0"/>
</linearGradient>
<linearGradient id="paint16_linear_246_1149" x1="109.096" y1="0" x2="109.096" y2="61" gradientUnits="userSpaceOnUse">
<stop stop-color="white"/>
<stop offset="1" stop-color="white" stop-opacity="0"/>
</linearGradient>
<linearGradient id="paint17_linear_246_1149" x1="108.474" y1="13.0713" x2="108.474" y2="47.8247" gradientUnits="userSpaceOnUse">
<stop stop-color="white"/>
<stop offset="1" stop-color="white" stop-opacity="0"/>
</linearGradient>
<linearGradient id="paint18_linear_246_1149" x1="108.474" y1="13.0713" x2="108.474" y2="47.8247" gradientUnits="userSpaceOnUse">
<stop stop-color="white"/>
<stop offset="1" stop-color="white" stop-opacity="0"/>
</linearGradient>
<clipPath id="clip0_246_1149">
<rect width="60" height="60" fill="white" transform="translate(1140 36)"/>
</clipPath>
</defs>
</svg>
